<svg xmlns="http://www.w3.org/2000/svg" viewBox="0 0 108 108" role="img" aria-label="甘农生活图标">
  <rect width="108" height="108" rx="24" fill="#6B8E7F" />
  <path fill="#FFF" d="M20 45 54 24l34 21-6 5-28-16-28 16Z" />
  <path fill="#FFF" d="M29 48h9v30h-9Zm41 0h9v30h-9ZM43 52h22v26h-7V61h-8v17h-7ZM23 78h62v7H23Z" />
  <path fill="#D8E8E0" d="M82 59c5-8 7-17 6-28-3 9-7 17-14 23l-2 11Z" />
  <path fill="#D8E8E0" d="M84 43c-8-1-12-6-12-13 8 1 13 5 12 13Zm-5 10c-7-1-11-5-11-11 7 1 12 5 11 11Z" />
</svg>
